<?xml version="1.0" standalone="no"?>
<!DOCTYPE svg PUBLIC "-//W3C//DTD SVG 20010904//EN"
 "http://www.w3.org/TR/2001/REC-SVG-20010904/DTD/svg10.dtd">
<svg version="1.0" xmlns="http://www.w3.org/2000/svg"
 width="100.000000pt" height="100.000000pt" viewBox="0 0 100.000000 100.000000"
 preserveAspectRatio="xMidYMid meet">
<metadata>
Created by potrace 1.11, written by Peter Selinger 2001-2013
</metadata>
<g transform="translate(0.000000,100.000000) scale(0.100000,-0.100000)"
fill="#000000" stroke="none">
<path d="M400 827 c-14 -6 -27 -15 -30 -19 -5 -7 -38 -15 -67 -17 -21 -2 -70
-50 -87 -86 -9 -19 -21 -35 -26 -35 -4 0 -18 -16 -30 -35 -16 -26 -21 -50 -21
-99 0 -112 48 -167 150 -172 39 -2 71 -11 107 -31 29 -15 71 -39 95 -52 72
-39 166 -28 222 26 56 55 97 134 97 185 0 26 5 50 10 53 12 7 13 94 2 112 -12
19 -65 84 -91 110 -34 36 -85 54 -139 52 -26 -1 -57 3 -69 9 -27 15 -90 14
-123 -1z"/>
</g>
</svg>
